<?xml version="1.0" encoding="utf-8"?>
<!-- Generator: Adobe Illustrator 21.0.0, SVG Export Plug-In . SVG Version: 6.00 Build 0)  -->
<svg version="1.1" id="图层_1" xmlns="http://www.w3.org/2000/svg" xmlns:xlink="http://www.w3.org/1999/xlink" x="0px" y="0px"
	 viewBox="0 0 175 137.5" style="enable-background:new 0 0 175 137.5;" xml:space="preserve">
<style type="text/css">
	.st0{fill:#DAA450;}
</style>
<path class="st0" d="M103.3,52H26.6l37.2-37.8C67,11.1,67.1,6,64,2.8c-0.1-0.1-0.1-0.1-0.2-0.2c-3.3-3.4-7.7-3.5-11-0.1L2.5,53.1
	c-3.1,2.9-3.3,7.7-0.4,10.8c0.1,0.2,0.3,0.3,0.4,0.4L52.9,115c3.3,3.4,7.7,3.4,11,0c3.3-3.4,3.3-7.8,0-11.2L26.6,66.7h76.7
	c30.7,0,57.4,24.6,57.4,55v7.9c0,4.5,2.8,7.9,7.2,7.9s7.2-3.4,7.2-7.9v-7.9C175,82.3,142.7,52,103.3,52z"/>
</svg>
