<?xml version="1.0" standalone="no"?><!DOCTYPE svg PUBLIC "-//W3C//DTD SVG 1.1//EN" "http://www.w3.org/Graphics/SVG/1.1/DTD/svg11.dtd"><svg class="icon" width="200px" height="200.00px" viewBox="0 0 1024 1024" version="1.1" xmlns="http://www.w3.org/2000/svg"><path d="M384 64.056C384 28.679 412.375 0 448.6 0h126.8C611.078 0 640 28.456 640 64.056v895.888c0 35.377-28.375 64.056-64.6 64.056H448.6c-35.678 0-64.6-28.456-64.6-64.056V64.056zM768 575.81c0-35.241 28.375-63.81 64.6-63.81h126.8c35.678 0 64.6 28.994 64.6 63.81v384.38c0 35.241-28.375 63.81-64.6 63.81H832.6c-35.678 0-64.6-28.994-64.6-63.81V575.81zM0 320.158C0 284.725 28.375 256 64.6 256h126.8c35.678 0 64.6 29.169 64.6 64.158v639.684c0 35.433-28.375 64.158-64.6 64.158H64.6C28.922 1024 0 994.831 0 959.842V320.158z" fill="#5d9df7" /></svg>