<?xml version="1.0" encoding="utf-8"?>
<!-- Generator: Adobe Illustrator 21.0.0, SVG Export Plug-In . SVG Version: 6.00 Build 0)  -->
<svg version="1.1" id="图层_1" xmlns="http://www.w3.org/2000/svg" xmlns:xlink="http://www.w3.org/1999/xlink" x="0px" y="0px"
	 viewBox="0 0 175 175.5" style="enable-background:new 0 0 175 175.5;" xml:space="preserve">
<style type="text/css">
	.st0{fill:#9FCEE2;}
</style>
<path class="st0" d="M106.2,138c-3.5,0-6.2-2.8-6.2-6.2V63c0-3.5,2.8-6.2,6.2-6.2s6.2,2.8,6.2,6.2v68.8
	C112.5,135.2,109.7,138,106.2,138z M68.8,138c-3.5,0-6.2-2.8-6.2-6.2V63c0-3.5,2.8-6.2,6.2-6.2S75,59.5,75,63v68.8
	C75,135.2,72.2,138,68.8,138z M168.8,31.8h-31.2V19.2c0-10.3-8.3-18.8-18.6-18.8H56.2c-10.3,0-18.8,8.4-18.8,18.8v12.5H6.2
	C2.8,31.8,0,34.5,0,38c0,3.5,2.8,6.2,6.2,6.2h162.5c3.5,0,6.2-2.8,6.2-6.2S172.2,31.8,168.8,31.8z M50,19.2c0-3.4,2.8-6.2,6.2-6.2
	h62.6c3.4,0,6.1,2.7,6.1,6.2v12.5H50V19.2z M131.3,175.5H43.8c-10.3,0-18.8-8.4-18.8-18.8V62.9c0-3.4,2.8-6.2,6.2-6.2
	s6.3,2.8,6.3,6.2v93.8c0,3.4,2.8,6.2,6.2,6.2h87.5c3.5,0,6.2-2.8,6.2-6.2V63.2c0-3.4,2.8-6.2,6.2-6.2c3.5,0,6.2,2.8,6.2,6.2v93.6
	C150,167.1,141.6,175.5,131.3,175.5z"/>
</svg>
