<?xml version="1.0" encoding="utf-8"?>
<!-- Generator: Adobe Illustrator 21.0.0, SVG Export Plug-In . SVG Version: 6.00 Build 0)  -->
<svg version="1.1" id="图层_1" xmlns="http://www.w3.org/2000/svg" xmlns:xlink="http://www.w3.org/1999/xlink" x="0px" y="0px"
	 viewBox="0 0 192.5 171.6" style="enable-background:new 0 0 192.5 171.6;" xml:space="preserve">
<style type="text/css">
	.st0{fill:#7FBF50;}
</style>
<path class="st0" d="M178.2,13.5c-13.6,0.6-26.9-0.2-39.8,1.9c-21.2,3.4-34.8,22.1-34.9,45.9c-0.2,34.8-0.2,69.6-0.2,104.5
	c0,1.8,0,3.6,0,5.9H89.3v-5.3c0-22.3,0-44.7,0-67C89.2,72.9,70.5,54,44.1,53.8c-9.8-0.1-19.6,0-29.9,0c1,16.3,9.6,27.1,21.7,36.1
	c12.5,9.3,27,7.8,41.6,7.8v13.6C28.9,118.5-5.7,86.7,0.8,39.2h14.7c8.8,0,17.7,0,26.5,0c17.9-0.1,33.2,5.8,45.5,19
	c0.3,0.3,0.8,0.5,1.1,0.7c1-5.7,1.5-11.6,3.2-17c7.5-25,30.3-41.9,56.4-41.9c14.5,0,28.9,0,43.3,0c6.8,40.8-21.7,79-76.1,72.3V58.2
	c6.2,0,12.1,0.1,18.1,0c20.6-0.5,41.5-18.9,44.6-39.2C178.4,17.6,178.2,16,178.2,13.5z"/>
</svg>
