<?xml version="1.0" encoding="utf-8"?>
<!-- Generator: Adobe Illustrator 21.0.0, SVG Export Plug-In . SVG Version: 6.00 Build 0)  -->
<svg version="1.1" id="图层_1" xmlns="http://www.w3.org/2000/svg" xmlns:xlink="http://www.w3.org/1999/xlink" x="0px" y="0px"
	 viewBox="0 0 200 200" style="enable-background:new 0 0 200 200;" xml:space="preserve">
<style type="text/css">
	.st0{fill:#DBA450;}
</style>
<path class="st0" d="M185.9,87c-3.2-3.2-6.8-5.9-10.7-8.1c-11.3-6.2-21.7-14-30.8-23.1c-9.1-9.2-16.8-19.6-23.1-30.8
	c-2.2-4-4.9-7.6-8.1-10.8c-9-9-21.3-13.9-34-13.8C35.7,0.3,0.3,35.5,0,79c0,4.5,0.4,9.1,1.2,13.6c9.5,54.1,51.9,96.5,106,106
	c42.9,7.7,83.9-20.9,91.5-63.8c0.8-4.6,1.2-9.2,1.2-13.9C200,108.2,194.9,96,185.9,87z M121,186.3c-3.8,0-7.5-0.3-11.2-1
	c-48.6-8.5-86.6-46.5-95.1-95.1c-0.6-3.7-0.9-7.5-0.8-11.2C13.9,43.1,43,14,79,13.8c9.1,0,17.9,3.6,24.3,10.1
	c2.3,2.3,4.2,4.9,5.8,7.7c6.9,12.4,15.5,23.9,25.5,33.9c10,10,21.5,18.6,33.9,25.5c10.9,6.1,17.8,17.6,17.8,30.1
	C186.2,157.1,157,186.3,121,186.3L121,186.3z"/>
<path class="st0" d="M124.9,72.3c-9.2-8.9-15.4-27.7-26.2-23.9c-18.4,6.4-2,28.8,8.6,39.5c13.4,13.6,28.5,19.9,36.1,12.1
	C153.7,89.3,133.7,80.8,124.9,72.3L124.9,72.3z"/>
</svg>
