<?xml version="1.0" encoding="utf-8"?>
<!-- Generator: Adobe Illustrator 21.0.0, SVG Export Plug-In . SVG Version: 6.00 Build 0)  -->
<svg version="1.1" id="图层_1" xmlns="http://www.w3.org/2000/svg" xmlns:xlink="http://www.w3.org/1999/xlink" x="0px" y="0px"
	 viewBox="0 0 171.6 200" style="enable-background:new 0 0 171.6 200;" xml:space="preserve">
<style type="text/css">
	.st0{fill:#7FBF50;}
</style>
<path class="st0" d="M5.2,171.4l32.3-6.4c2.6-0.3,5.1-1.5,7-3.4l123-121.7c4.8-4.9,4.8-12.8,0-17.7l-16-18.3
	c-4.6-4.8-12.2-4.9-17-0.3c-0.1,0.1-0.2,0.2-0.3,0.3L11,125.1c-1.9,1.8-3.1,4.2-3.6,6.9l-7.3,32.7c-0.7,2.9,1.1,5.9,4,6.6
	C4.5,171.4,4.8,171.4,5.2,171.4z M143,15.3l14.3,15.1L143,44l-14.3-15.4L143,15.3z M21.4,135.3L120,37.9L134.3,53l-98.7,97.4
	l-18.3,3.7L21.4,135.3z M0.2,185.7h171.4V200H0.2L0.2,185.7z"/>
</svg>
