<?xml version="1.0" encoding="utf-8"?>
<!-- Generator: Adobe Illustrator 21.0.0, SVG Export Plug-In . SVG Version: 6.00 Build 0)  -->
<svg version="1.1" id="图层_1" xmlns="http://www.w3.org/2000/svg" xmlns:xlink="http://www.w3.org/1999/xlink" x="0px" y="0px"
	 viewBox="0 0 200 200" style="enable-background:new 0 0 200 200;" xml:space="preserve">
<style type="text/css">
	.st0{fill:#D3D6F4;}
</style>
<path class="st0" d="M100,102.4c2.3-0.1,4.5-1,6.2-2.5c1.8-1.8,2.7-4.2,2.5-6.7V9.2c0.3-2.5-0.5-4.9-2.2-6.7
	c-1.8-1.6-4.2-2.5-6.6-2.5c-2.3,0-4.5,0.9-6.1,2.5C92,4.2,91,6.6,91,9v84.1c-0.3,4.9,3.5,9.1,8.4,9.4
	C99.6,102.4,99.8,102.4,100,102.4z"/>
<path class="st0" d="M191.1,83.9h-1.7H191.1c-1.6-7.2-4.1-14.1-7.4-20.7c-3.5-6.6-7.7-12.8-12.5-18.5c-5.2-5.7-11.1-10.8-17.5-15.1
	l-1.2-0.9c-1.6-1-3.5-1.5-5.4-1.2c-2.4,0.3-4.6,1.6-6,3.6c-1.4,2-1.9,4.4-1.5,6.7c0.3,2.3,1.7,4.4,3.6,5.7
	c10.2,7,18.4,16.3,24.1,27.2c5.5,10.8,8.5,22.7,8.5,34.9c0,10.1-2.1,20.2-6.1,29.5c-7.7,18.2-22.2,32.6-40.3,40.2
	c-38,16.4-82.1-1-98.6-39c-0.2-0.4-0.3-0.8-0.5-1.2c-4-9.4-6-19.4-5.9-29.6C24.5,81.8,35.8,59.4,55,45.3c1.9-1.2,3.3-3.2,3.7-5.4
	c0.4-2.3-0.1-4.6-1.5-6.5c-1.4-2-3.6-3.3-6-3.7c-2.4-0.4-4.8,0.2-6.7,1.6c-5.9,4.3-11.4,9.3-16.2,14.7c-4.9,5.4-9.1,11.5-12.5,18
	c-3,6.5-5.4,13.3-7,20.2c-4.7,19.5-3,39.9,4.7,58.3c4.7,11.2,11.6,21.3,20.2,29.7c8.6,8.6,18.7,15.4,29.9,20.2
	c47.7,20.1,102.6-2.3,122.7-50c5.1-11.5,7.6-23.9,7.5-36.5C193.8,98.7,192.9,91.2,191.1,83.9L191.1,83.9z"/>
</svg>
