<?xml version="1.0" encoding="utf-8"?>
<!-- Generator: Adobe Illustrator 21.0.0, SVG Export Plug-In . SVG Version: 6.00 Build 0)  -->
<svg version="1.1" id="图层_1" xmlns="http://www.w3.org/2000/svg" xmlns:xlink="http://www.w3.org/1999/xlink" x="0px" y="0px"
	 viewBox="0 0 200 200" style="enable-background:new 0 0 200 200;" xml:space="preserve">
<style type="text/css">
	.st0{fill:#D3D6F4;}
</style>
<path class="st0" d="M154.1,70.2h-4.9v-20c0.3-27.3-21.7-49.6-48.9-49.9C73,0.6,51.1,23,51.4,50.2v20h-4.9
	c-16.4,0.2-29.6,13.6-29.4,30V170c-0.2,16.4,13,29.8,29.4,30h107.6c16.4-0.2,29.6-13.6,29.4-30v-69.9
	C183.7,83.8,170.5,70.3,154.1,70.2L154.1,70.2z M66,50.2c-0.5-18.9,14.5-34.6,33.4-35c18.9-0.5,34.6,14.5,35,33.4v21.7H66V50.2z
	 M168.8,170c0.1,8.2-6.5,14.9-14.7,15H46.4c-8.2-0.1-14.8-6.8-14.7-15v-69.9c-0.1-8.2,6.5-14.9,14.7-15H154
	c8.2,0.1,14.8,6.8,14.7,15L168.8,170z M100.3,112.6c-4.1,0.1-7.4,3.4-7.3,7.5v30c0,4.1,3.3,7.4,7.4,7.4c4.1,0,7.4-3.3,7.4-7.4v-30
	C107.7,116,104.4,112.6,100.3,112.6z"/>
</svg>
