<?xml version="1.0" encoding="utf-8"?>
<!-- Generator: Adobe Illustrator 21.0.0, SVG Export Plug-In . SVG Version: 6.00 Build 0)  -->
<svg version="1.1" id="图层_1" xmlns="http://www.w3.org/2000/svg" xmlns:xlink="http://www.w3.org/1999/xlink" x="0px" y="0px"
	 viewBox="0 0 180.6 173.5" style="enable-background:new 0 0 180.6 173.5;" xml:space="preserve">
<style type="text/css">
	.st0{fill:#DBA450;}
</style>
<path class="st0" d="M84.3,139c3.8-2,8.3-2,12.1,0l41.6,21.9c0.2,0.1,0.5,0,0.6-0.2c0-0.1,0.1-0.2,0-0.3l-8-46.5
	c-0.7-4.2,0.7-8.4,3.7-11.4l33.7-33c0.2-0.2,0.2-0.4,0-0.6c-0.1-0.1-0.1-0.1-0.2-0.1l-46.5-6.8c-4.2-0.6-7.9-3.3-9.7-7.1L90.7,12.7
	c-0.1-0.2-0.3-0.3-0.6-0.2c-0.1,0-0.2,0.1-0.2,0.2L69.1,55c-1.9,3.8-5.5,6.5-9.7,7.1l-46.5,6.8c-0.2,0-0.4,0.3-0.3,0.5
	c0,0.1,0.1,0.2,0.1,0.2l33.7,33c3,3,4.4,7.2,3.7,11.4l-8,46.5c0,0.2,0.1,0.4,0.3,0.5c0.1,0,0.2,0,0.3,0C42.7,161,84.3,139,84.3,139z
	 M90.1,150.1L48.5,172c-6.3,3.3-14.1,0.9-17.5-5.4c-1.3-2.5-1.8-5.4-1.3-8.2l7.9-46.5c0-0.1,0-0.3-0.1-0.4l-33.7-33
	c-5.1-5-5.2-13.2-0.2-18.3c2-2,4.6-3.3,7.4-3.8l46.5-6.8c0.1,0,0.3-0.1,0.3-0.2L78.7,7.2c3.1-6.4,10.9-9,17.3-5.9
	c2.6,1.3,4.6,3.3,5.9,5.9l20.8,42.3c0.1,0.1,0.2,0.2,0.3,0.2l46.5,6.8c7.1,1,11.9,7.6,10.9,14.6c-0.4,2.8-1.7,5.4-3.8,7.4l-33.7,33
	c-0.1,0.1-0.1,0.2-0.1,0.4l7.9,46.5c1.2,7-3.5,13.7-10.6,14.9c-2.8,0.5-5.7,0-8.2-1.3l-41.6-21.9C90.4,150,90.2,150,90.1,150.1
	L90.1,150.1z"/>
</svg>
