<?xml version="1.0" encoding="utf-8"?>
<!-- Generator: Adobe Illustrator 21.0.0, SVG Export Plug-In . SVG Version: 6.00 Build 0)  -->
<svg version="1.1" id="图层_1" xmlns="http://www.w3.org/2000/svg" xmlns:xlink="http://www.w3.org/1999/xlink" x="0px" y="0px"
	 viewBox="0 0 193.1 191.2" style="enable-background:new 0 0 193.1 191.2;" xml:space="preserve">
<style type="text/css">
	.st0{fill:#9CB3C3;}
</style>
<path class="st0" d="M23.8,11.2h118.8c7.5,0,12.5,5,12.5,12.5v53.8c0,3.8,2.5,6.2,6.2,6.2s6.2-2.5,6.2-6.2v-65
	C167.5,5,162.5,0,155,0H12.5C5,0,0,5,0,12.5v166.2c0,7.5,5,12.5,12.5,12.5h80c3.8,0,6.2-2.5,6.2-6.2s-2.5-6.2-6.2-6.2H23.8
	c-7.5,0-12.5-5-12.5-12.5V23.8C11.3,17.5,17.5,11.2,23.8,11.2z M42.5,35h83.7c3.8,0,6.3,2.5,6.3,6.2c0,3.8-2.5,6.2-6.3,6.2H42.5
	c-3.8,0-6.2-2.5-6.2-6.2C36.2,37.5,38.8,35,42.5,35z M42.5,107.5h60c3.8,0,6.2,2.5,6.2,6.2s-2.5,6.2-6.2,6.2h-60
	c-3.8,0-6.2-2.5-6.2-6.2S38.8,107.5,42.5,107.5z M42.5,71.2h60c3.8,0,6.2,2.5,6.2,6.2c-1.3,2.5-3.8,5-6.2,5h-60
	c-3.8,0-6.2-2.5-6.2-5C36.2,73.8,38.8,71.2,42.5,71.2z M191.2,96.3c2.5-2.5,2.5-5,0-7.5c-2.5-2.5-5-2.5-7.5,0l-27.5,27.5l-27.5-27.5
	c-2.5-2.5-5-2.5-7.5,0c-2.5,2.5-2.5,5,0,7.5l30,30v3.8H125c-2.5,0-5,2.5-5,5c0,2.5,2.5,5,5,5h26.3v20H125c-2.5,0-5,2.5-5,5
	s2.5,5,5,5h26.3v15c0,2.5,2.5,5,5,5c2.5,0,5-2.5,5-5v-15h25c2.5,0,5-2.5,5-5s-2.5-5-5-5h-25v-20h25c2.5,0,5-2.5,5-5c0-2.5-2.5-5-5-5
	h-25v-3.8L191.2,96.3L191.2,96.3z"/>
</svg>
