<?xml version="1.0" encoding="utf-8"?>
<!-- Generator: Adobe Illustrator 21.0.0, SVG Export Plug-In . SVG Version: 6.00 Build 0)  -->
<svg version="1.1" id="图层_1" xmlns="http://www.w3.org/2000/svg" xmlns:xlink="http://www.w3.org/1999/xlink" x="0px" y="0px"
	 viewBox="0 0 114.6 114.6" style="enable-background:new 0 0 114.6 114.6;" xml:space="preserve">
<style type="text/css">
	.st0{fill:#666666;}
</style>
<path class="st0" d="M112.5,112.5c-2.7,2.7-7.2,2.7-9.9,0L2.1,12c-2.7-2.7-2.7-7.2,0-9.9s7.2-2.7,9.9,0l100.5,100.5
	C115.3,105.3,115.3,109.8,112.5,112.5L112.5,112.5z"/>
<path class="st0" d="M112.5,2.1c2.7,2.7,2.7,7.2,0,9.9L12,112.5c-2.7,2.7-7.2,2.7-9.9,0s-2.7-7.2,0-9.9L102.6,2
	C105.3-0.7,109.8-0.7,112.5,2.1z"/>
</svg>
