<?xml version="1.0" encoding="utf-8"?>
<!-- Generator: Adobe Illustrator 21.0.0, SVG Export Plug-In . SVG Version: 6.00 Build 0)  -->
<svg version="1.1" id="图层_1" xmlns="http://www.w3.org/2000/svg" xmlns:xlink="http://www.w3.org/1999/xlink" x="0px" y="0px"
	 viewBox="0 0 171.8 175" style="enable-background:new 0 0 171.8 175;" xml:space="preserve">
<style type="text/css">
	.st0{fill:#DAA450;}
</style>
<path class="st0" d="M133.2,175c-1.6,0-2.1-0.3-3.5-1.2L86.5,147l-21,21c-2.1,2.1-4.7,1.2-4.7,1.2c-2.3-1.2-3.5-3.5-3.5-5.8v-43.2
	c-0.2-3.6,1.2-4.7,1.2-4.7l64.3-63.1c2.3-2.3,5.8-2.3,8.2,0s2.3,5.8,0,8.2l-63.1,61.9v26.9l14-14c1.7-1.6,5.8-2.3,8.2-1.2l39.7,24.5
	l29.2-141.4L18.7,92l30.4,17.5c1.7,1.4,2.3,4.7,1.2,7s-4.7,3.5-8.2,2.3L3.5,96.7C1.2,95.5,0,93.2,0,90.9s1.2-3.5,3.5-4.7L163.6,0.9
	c2.3-1.2,4.7-1.2,5.8,0c2.3,1.2,2.3,3.5,2.3,5.8L139,169.2c-0.5,2.8-0.9,3.5-2.5,4.7C136.5,173.8,135,175,133.2,175z"/>
</svg>
