<?xml version="1.0" encoding="utf-8"?>
<!-- Generator: Adobe Illustrator 21.0.0, SVG Export Plug-In . SVG Version: 6.00 Build 0)  -->
<svg version="1.1" id="图层_1" xmlns="http://www.w3.org/2000/svg" xmlns:xlink="http://www.w3.org/1999/xlink" x="0px" y="0px"
	 viewBox="0 0 185.8 189" style="enable-background:new 0 0 185.8 189;" xml:space="preserve">
<style type="text/css">
	.st0{fill:#9CB3C3;}
</style>
<path class="st0" d="M89.7,2.2c2-1,4.4-1,6.4,0L181.8,45c3.5,1.8,5,6.1,3.2,9.6c-0.7,1.4-1.8,2.5-3.2,3.2l-85.7,42.9
	c-2,1-4.4,1-6.4,0L4,57.8c-3.5-1.8-5-6.1-3.2-9.6C1.5,46.8,2.6,45.7,4,45L89.7,2.2L89.7,2.2z M23.2,51.4l69.7,34.9l69.7-34.9
	L92.9,16.5L23.2,51.4L23.2,51.4z M92.9,172l82.5-41.3c3.5-1.7,7.8-0.3,9.6,3.2c1.7,3.5,0.3,7.8-3.2,9.5l-85.7,42.9c-2,1-4.4,1-6.4,0
	L4,143.5c-3.5-1.7-5-6-3.2-9.6c1.7-3.5,6-5,9.6-3.2c0,0,0,0,0.1,0L92.9,172L92.9,172z M92.9,129.1l82.5-41.3
	c3.5-1.8,7.8-0.4,9.6,3.1c1.8,3.5,0.4,7.8-3.1,9.6c0,0,0,0-0.1,0l-85.7,42.9c-2,1-4.4,1-6.4,0L4,100.6c-3.5-1.8-4.9-6.1-3.1-9.6
	c1.8-3.5,6-4.9,9.5-3.2L92.9,129.1L92.9,129.1z"/>
</svg>
