<?xml version="1.0" encoding="utf-8"?>
<!-- Generator: Adobe Illustrator 21.0.0, SVG Export Plug-In . SVG Version: 6.00 Build 0)  -->
<svg version="1.1" id="图层_1" xmlns="http://www.w3.org/2000/svg" xmlns:xlink="http://www.w3.org/1999/xlink" x="0px" y="0px"
	 viewBox="0 0 174.9 174.9" style="enable-background:new 0 0 174.9 174.9;" xml:space="preserve">
<style type="text/css">
	.st0{fill:#9CB3C3;}
</style>
<path class="st0" d="M57.8,0H24.6C11.2,0,0,11.1,0,24.5v33.2c0,13.4,11.2,24,24.6,24h57.1V24.5C81.7,11.1,71.2,0,57.8,0z M69.8,69.8
	H24.6c-6.7,0-12.4-5.4-12.4-12.1V24.5c0-6.7,5.7-12.3,12.4-12.3h33.2c6.7,0,11.9,5.6,11.9,12.3L69.8,69.8L69.8,69.8z M150.9,0h-33.2
	c-13.4,0-24.6,11.1-24.6,24.5v57.2h57.8c13.4,0,24-10.7,24-24V24.5C174.9,11.1,164.3,0,150.9,0L150.9,0z M162.7,57.7
	c0,6.7-5.1,12.1-11.8,12.1h-45.8V24.5c0-6.7,5.9-12.3,12.6-12.3h33.2c6.7,0,11.8,5.6,11.8,12.3C162.7,24.5,162.7,57.7,162.7,57.7z
	 M0,117.6v33.2c0,13.4,11.2,24.1,24.6,24.1h33.2c13.4,0,23.9-10.7,23.9-24.1V93.1H24.6C11.2,93.1,0,104.2,0,117.6L0,117.6z
	 M69.8,150.8c0,6.7-5.3,11.9-11.9,11.9H24.6c-6.7,0-12.4-5.2-12.4-11.9v-33.2c0-6.7,5.7-12.5,12.4-12.5h45.1V150.8L69.8,150.8z
	 M150.9,93.1H93.1v57.7c0,13.4,11.2,24.1,24.6,24.1h33.2c13.4,0,24-10.7,24-24.1v-33.2C174.9,104.2,164.3,93.1,150.9,93.1
	L150.9,93.1z M162.7,150.8c0,6.7-5.1,11.9-11.8,11.9h-33.2c-6.7,0-12.6-5.2-12.6-11.9v-45.7h45.8c6.7,0,11.8,5.8,11.8,12.5V150.8
	L162.7,150.8z"/>
</svg>
