<?xml version="1.0" encoding="utf-8"?>
<!-- Generator: Adobe Illustrator 21.0.0, SVG Export Plug-In . SVG Version: 6.00 Build 0)  -->
<svg version="1.1" id="图层_1" xmlns="http://www.w3.org/2000/svg" xmlns:xlink="http://www.w3.org/1999/xlink" x="0px" y="0px"
	 viewBox="0 0 166.7 144.3" style="enable-background:new 0 0 166.7 144.3;" xml:space="preserve">
<style type="text/css">
	.st0{fill:#9CB3C3;}
</style>
<path class="st0" d="M44.1,44L75.4,4.5c3.5-4.4,9.9-5.2,14.3-1.7c0.6,0.5,1.2,1,1.7,1.7L122.6,44l29.9-12.8
	c5.2-2.2,11.1,0.2,13.4,5.3c0.8,1.9,1,4,0.6,6.1L149,126.8c-2.1,10.2-11.1,17.5-21.5,17.5H39.2c-10.4,0-19.4-7.3-21.5-17.5L0.2,42.6
	c-1.1-5.5,2.4-10.9,7.9-12c2-0.4,4.2-0.2,6.1,0.6L44.1,44L44.1,44z M83.3,14.6L52.8,53.2c-2.9,3.6-7.8,4.8-12,3L13.4,44.4l16.6,79.8
	c0.9,4.4,4.8,7.5,9.3,7.5h88.3c4.5,0,8.3-3.1,9.3-7.5l16.6-79.8l-27.5,11.8c-4.2,1.8-9.1,0.6-12-3L83.3,14.6z"/>
</svg>
