<?xml version="1.0" standalone="no"?><!DOCTYPE svg PUBLIC "-//W3C//DTD SVG 1.1//EN" "http://www.w3.org/Graphics/SVG/1.1/DTD/svg11.dtd"><svg class="icon" width="200px" height="200.00px" viewBox="0 0 1024 1024" version="1.1" xmlns="http://www.w3.org/2000/svg"><path d="M789.088367 359.396905h-25.050424v-102.24663c1.533699-139.56665-110.937594-254.082876-250.504244-255.616576C373.967049 3.067399 261.495756 117.583625 263.029456 257.150275v102.24663h-25.050425c-83.842237 1.022466-151.325012 69.527708-150.302546 153.369945v357.863205c-1.022466 83.842237 66.46031 152.347479 150.302546 153.369945h551.109336c83.842237-1.022466 151.325012-69.527708 150.302547-153.369945v-357.863205c1.022466-83.842237-66.46031-152.858712-150.302547-153.369945z m-451.418871-102.24663c-2.556166-96.623065 74.128807-177.397903 171.263105-179.442836 96.623065-2.556166 177.397903 74.128807 179.442836 171.263105v110.937594H337.669496V257.150275z m526.570145 613.47978c0.511233 41.921118-33.230155 76.173739-75.151274 76.684972H237.467798c-41.921118-0.511233-75.662506-34.763854-75.151273-76.684972v-357.863205c-0.511233-41.921118 33.230155-76.173739 75.151273-76.684973h551.109336c41.921118 0.511233 75.662506 34.763854 75.151273 76.684973l0.511234 357.863205z m-350.705942-293.959061c-20.960559 0.511233-37.831253 17.381927-37.32002 38.342486v153.369945c0 20.960559 16.870694 37.831253 37.831254 37.831253s37.831253-16.870694 37.831253-37.831253v-153.369945c-0.511233-20.960559-17.381927-38.342486-38.342487-38.342486z" fill="#dedfeb" /></svg>