<?xml version="1.0" encoding="utf-8"?>
<!-- Generator: Adobe Illustrator 21.0.0, SVG Export Plug-In . SVG Version: 6.00 Build 0)  -->
<svg version="1.1" id="图层_1" xmlns="http://www.w3.org/2000/svg" xmlns:xlink="http://www.w3.org/1999/xlink" x="0px" y="0px"
	 viewBox="0 0 200 185.9" style="enable-background:new 0 0 200 185.9;" xml:space="preserve">
<style type="text/css">
	.st0{fill:#999999;}
</style>
<path class="st0" d="M92.9,114.3h14.3c3.9,0,7.1-3.2,7.1-7.1c0-3.9-3.2-7.1-7.1-7.1H92.9c-3.9,0-7.1,3.2-7.1,7.1
	C85.7,111.1,88.9,114.3,92.9,114.3z M92.9,142.9h14.3c3.9,0,7.1-3.2,7.1-7.1s-3.2-7.1-7.1-7.1c0,0,0,0,0,0H92.9
	c-3.9,0-7.1,3.2-7.1,7.1S88.9,142.9,92.9,142.9C92.9,142.9,92.9,142.9,92.9,142.9z M171.4,14.3h-28.6V7.1c0-3.9-3.2-7.1-7.1-7.1
	c-3.9,0-7.1,3.2-7.1,7.1c0,0,0,0,0,0v7.1H71.4V7.1c0-3.9-3.2-7.1-7.1-7.1c-3.9,0-7.1,3.2-7.1,7.1c0,0,0,0,0,0v7.1H28.6
	C12.8,14.3,0,27.1,0,42.9v114.3c0,15.8,12.8,28.5,28.6,28.6h142.8c15.8,0,28.5-12.8,28.6-28.6V42.9C200,27.1,187.2,14.3,171.4,14.3z
	 M185.7,157.1c0,7.9-6.4,14.3-14.3,14.3H28.6c-7.9,0-14.3-6.4-14.3-14.3V71.4h171.4L185.7,157.1z M185.7,57.1H14.3V42.9
	c0-7.9,6.4-14.3,14.3-14.3h28.6v7.1c0,3.9,3.2,7.1,7.1,7.1s7.1-3.2,7.1-7.1c0,0,0,0,0,0v-7.1h57.2v7.1c0,3.9,3.2,7.1,7.1,7.1
	c3.9,0,7.1-3.2,7.1-7.1c0,0,0,0,0,0v-7.1h28.6c7.9,0,14.3,6.4,14.3,14.3L185.7,57.1z M50,142.9h14.3c3.9,0,7.1-3.2,7.1-7.1
	s-3.2-7.1-7.1-7.1c0,0,0,0,0,0H50c-3.9,0-7.1,3.2-7.1,7.1C42.9,139.7,46.1,142.9,50,142.9z M135.7,114.3H150c3.9,0,7.1-3.2,7.1-7.1
	c0-3.9-3.2-7.1-7.1-7.1h-14.3c-3.9,0-7.1,3.2-7.1,7.1C128.6,111.1,131.8,114.3,135.7,114.3z M50,114.3h14.3c3.9,0,7.1-3.2,7.1-7.1
	c0-3.9-3.2-7.1-7.1-7.1H50c-3.9,0-7.1,3.2-7.1,7.1C42.9,111.1,46.1,114.3,50,114.3z M135.7,142.9H150c3.9,0,7.1-3.2,7.1-7.1
	c0-3.9-3.2-7.1-7.1-7.1h-14.3c-3.9,0-7.1,3.2-7.1,7.1C128.6,139.7,131.8,142.9,135.7,142.9z"/>
</svg>
