<?xml version="1.0" encoding="utf-8"?>
<!-- Generator: Adobe Illustrator 21.0.0, SVG Export Plug-In . SVG Version: 6.00 Build 0)  -->
<svg version="1.1" id="图层_1" xmlns="http://www.w3.org/2000/svg" xmlns:xlink="http://www.w3.org/1999/xlink" x="0px" y="0px"
	 viewBox="0 0 194.5 184" style="enable-background:new 0 0 194.5 184;" xml:space="preserve">
<style type="text/css">
	.st0{fill:#9CB3C3;}
</style> 
<path class="st0" d="M193.1,57.7l-0.1-0.1v-0.3c-0.1-0.3-0.1-0.6-0.2-0.8l-17.9-43.9c-2.3-7-8.8-12.5-16.8-12.5L36.3,0
	c-7.8,0-14,5.2-16.2,12.1v0.1L1.7,56.8c0,0.1-0.1,0.4-0.1,0.7v0.2C0.5,61.2,0,64.8,0,68.4c0,12.5,6.5,23.9,17,29.9l1.2,0.7
	c4.2,2.1,9.1,3.3,14.5,3.3c9.7,0,24.8-6.6,31-14.3l1.2-1.6l1.2,1.6c11.4,9.9,21.8,13.2,31.4,13.4c9.6-0.1,21.3-3.5,30.7-13.4
	l1.2-1.6l1.2,1.6c6.2,7.7,21.7,14.3,31.3,14.3c5.9,0,11.2-1.3,15.6-3.8c10.5-5.9,17-17.5,17-30C194.7,64.5,194.2,61,193.1,57.7
	L193.1,57.7z M173.2,86.8c-3.1,1.7-6.8,2.7-11.2,2.7c-8.2,0-22-6.1-26.3-13.4l-0.1-0.1v-0.1c-0.2-0.6-0.6-1.5-1.4-2.4
	s-2.3-2.5-4.8-2.5c-1.9,0-3.8,1.2-4.8,2.5c-0.7,0.8-1.1,1.7-1.4,2.2v0.2c-4.3,7.2-17.6,13.8-25.7,13.8s-22.1-6.8-26.4-14v-0.1
	L71,75.5c-0.2-0.6-1-1.6-1.6-2.2c-1.1-1.3-2.5-2.6-4.6-2.6c-1.9,0-3.5,1.1-4.4,2.2c-0.8,0.9-1.4,2.1-1.7,2.7v0.1l-0.1,0.1
	c-4.3,7.2-16.4,13-24.5,13.1c-4.1,0-7.7-0.8-10.6-2.4l-0.4-0.2c-7.7-4.1-10.9-10-10.9-19.1c0-2.7,0.4-5.4,1.3-8
	c0-0.1,0.1-0.2,0.1-0.4v-0.1l16.7-40.2c1.1-3.4,2.3-5.1,6.2-5.1h120.8c1.7,0.1,4.2,0.3,5.9,5.3l17.9,40.6v0.1c0,0.2,0.1,0.3,0.1,0.6
	c0.8,2.6,1.3,5.3,1.3,8C182.6,77.1,180.8,82.5,173.2,86.8L173.2,86.8z M162.5,184H32.7c-8,0-14.5-5.2-14.5-13.1v-49.1
	c0-4.4,2.3-8,6.7-8s6.9,3.6,6.9,8v49h130.9v-49c0-4.4,2.5-8,6.9-8s7.4,3.6,7.4,8v49.1C176.9,178.8,170.5,184,162.5,184L162.5,184z"
	/>
<path class="st0" d="M130.3,44.9h-66c-3.6,0-6.5-2.9-6.5-6.5c0-3.6,2.9-6.5,6.5-6.5h66c3.6,0,6.5,2.9,6.5,6.5
	C136.8,42,133.9,44.9,130.3,44.9L130.3,44.9z"/>
</svg>
