<?xml version="1.0" encoding="utf-8"?>
<!-- Generator: Adobe Illustrator 21.0.0, SVG Export Plug-In . SVG Version: 6.00 Build 0)  -->
<svg version="1.1" id="图层_1" xmlns="http://www.w3.org/2000/svg" xmlns:xlink="http://www.w3.org/1999/xlink" x="0px" y="0px"
	 viewBox="0 0 154.5 141.2" style="enable-background:new 0 0 154.5 141.2;" xml:space="preserve">
<style type="text/css">
	.st0{fill:#7FBF50;}
</style>
<path class="st0" d="M5.9,141.1h142.5c3.3,0,6-2.6,6-5.9v-34.5c0-3.3-2.7-5.9-6-5.9c-3.3,0-6,2.6-6,5.9v28.5H12v-28.6
	c0-3.3-2.7-5.9-6-5.9s-6,2.6-6,5.9v34.5C-0.1,138.4,2.6,141.1,5.9,141.1z M51.3,45.7l19.6-23.4v84.3c0,3.3,2.7,5.9,6,5.9
	s6-2.7,6-5.9V22.1l19.8,23.6c2.4,2.3,6.2,2.3,8.5,0c2.4-2.3,2.4-6.1,0-8.4L81.5,1.9c-1.3-1.2-2.9-1.8-4.6-1.7
	c-1.6-0.1-3.3,0.4-4.6,1.7L42.6,37.3c-2.4,2.3-2.4,6.1,0,8.4C45.1,48,48.9,48,51.3,45.7L51.3,45.7z"/>
</svg>
