<?xml version="1.0" encoding="utf-8"?>
<!-- Generator: Adobe Illustrator 21.0.0, SVG Export Plug-In . SVG Version: 6.00 Build 0)  -->
<svg version="1.1" id="图层_1" xmlns="http://www.w3.org/2000/svg" xmlns:xlink="http://www.w3.org/1999/xlink" x="0px" y="0px"
	 viewBox="0 0 187.5 162.8" style="enable-background:new 0 0 187.5 162.8;" xml:space="preserve">
<style type="text/css">
	.st0{fill:#9CB3C3;}
</style>
<path class="st0" d="M162.5,0.2H25c-13.8,0-25,11.2-25,25v112.5c0,13.8,11.2,25,25,25h137.5c13.8,0,25-11.2,25-25V25.2
	C187.5,11.4,176.3,0.2,162.5,0.2z M175,137.8c0,6.9-5.6,12.5-12.5,12.5H25c-6.9,0-12.5-5.6-12.5-12.5V25.2c0-6.9,5.6-12.5,12.5-12.5
	h137.5c6.9,0,12.5,5.6,12.5,12.5V137.8z M72,38.6c-1.9-1.1-4.3-1.2-6.3-0.1c-1.9,1.1-3.2,3.2-3.2,5.4v75c0,2.3,1.2,4.3,3.2,5.4
	c1,0.5,2,0.8,3.1,0.8c1.1,0,2.2-0.3,3.2-0.9l62.5-37.5c1.9-1.1,3-3.2,3-5.4s-1.2-4.2-3-5.4L72,38.6z M75,108V55l44.1,26.5L75,108z"
	/>
</svg>
