<?xml version="1.0" encoding="utf-8"?>
<!-- Generator: Adobe Illustrator 21.0.0, SVG Export Plug-In . SVG Version: 6.00 Build 0)  -->
<svg version="1.1" id="图层_1" xmlns="http://www.w3.org/2000/svg" xmlns:xlink="http://www.w3.org/1999/xlink" x="0px" y="0px"
	 viewBox="0 0 155.9 162.1" style="enable-background:new 0 0 155.9 162.1;" xml:space="preserve">
<style type="text/css">
	.st0{fill:#666666;}
</style>
<path class="st0" d="M145.7,79.5c-5.6,0-3.9,4.3-3.9,9.5c0,29.8-32.1,60.3-63.8,60.3c-31.8,0-63.8-30.5-63.8-60.3
	c0-29.8,32.1-60.3,63.8-60.3h0v15.9l40.7-25.4L78,0v15.9h0C35,15.9,0,48.7,0,89c0,40.3,35,73.1,77.9,73.1c43,0,77.9-32.8,77.9-73.1
	C155.9,83.8,151.3,79.5,145.7,79.5L145.7,79.5z"/>
</svg>
