<?xml version="1.0" encoding="utf-8"?>
<!-- Generator: Adobe Illustrator 21.0.0, SVG Export Plug-In . SVG Version: 6.00 Build 0)  -->
<svg version="1.1" id="图层_1" xmlns="http://www.w3.org/2000/svg" xmlns:xlink="http://www.w3.org/1999/xlink" x="0px" y="0px"
	 viewBox="0 0 195.4 170.3" style="enable-background:new 0 0 195.4 170.3;" xml:space="preserve">
<style type="text/css">
	.st0{fill:#9CB3C3;}
</style>
<path class="st0" d="M177.6,0H17.8C8,0,0,8,0,17.8v134.8c0,9.8,8,17.8,17.8,17.8h159.9c9.8,0,17.8-8,17.8-17.8V17.8
	C195.4,8,187.4,0,177.6,0L177.6,0z M17.8,13h159.9c2.7,0,4.8,2.2,4.8,4.8v96c-9.1-14.1-21.5-32.5-28.3-39.6
	c-5.8-6.1-11.7-7.3-15.6-7.3h0c-8.7,0-15,5.9-16.3,7.2c-2.5,2.4-35,32.7-39,36.5c-2.1-2.3-9.6-10.7-16.8-17.9
	c-4.6-4.6-10.7-6.2-17-4.3c-4.1,1.2-7,3.5-7.5,3.9l-0.1,0L13,117.1V17.8C13,15.1,15.1,13,17.8,13z M177.6,157.4H17.8
	c-2.7,0-4.8-2.2-4.8-4.8v-18l37.2-32.5c0.4-0.3,1.7-1.2,3.2-1.5c1.6-0.4,2.7-0.1,4,1.1c7.6,7.6,15.8,16.9,16.7,17.8
	c0.9,1.1,3.8,4.1,8.3,4.4c2.4,0.2,6-0.4,9.7-3.9c1.8-1.7,28.9-27.1,39.1-36.7l0.1-0.1l0.2-0.2c1-1,4-3.3,7.1-3.3l0.1,0
	c2.1,0,4.1,1.1,6.2,3.3c7.7,8.1,28.5,38.1,37.7,52.1v17.4C182.5,155.2,180.3,157.4,177.6,157.4L177.6,157.4z"/>
<path class="st0" d="M52,71.4c10.3,0,18.7-8.4,18.7-18.7S62.3,34,52,34s-18.7,8.4-18.7,18.7S41.7,71.4,52,71.4z M52,46.9
	c3.2,0,5.8,2.6,5.8,5.8s-2.6,5.8-5.8,5.8c-3.2,0-5.8-2.6-5.8-5.8C46.3,49.5,48.9,46.9,52,46.9z"/>
</svg>
