<?xml version="1.0" encoding="utf-8"?>
<!-- Generator: Adobe Illustrator 21.0.0, SVG Export Plug-In . SVG Version: 6.00 Build 0)  -->
<svg version="1.1" id="图层_1" xmlns="http://www.w3.org/2000/svg" xmlns:xlink="http://www.w3.org/1999/xlink" x="0px" y="0px"
	 viewBox="0 0 154.5 141.2" style="enable-background:new 0 0 154.5 141.2;" xml:space="preserve">
<style type="text/css">
	.st0{fill:#00000;}
</style>
<path class="st0" d="M148.5,0.2H6c-3.3,0-6,2.6-6,5.9v34.5c0,3.3,2.7,5.9,6,5.9s6-2.6,6-5.9V12.1h130.4v28.6c0,3.3,2.7,5.9,6,5.9
	s6-2.6,6-5.9V6.2C154.5,2.9,151.8,0.2,148.5,0.2z M103.1,95.6L83.5,119V34.7c0-3.3-2.7-5.9-6-5.9s-6,2.7-6,5.9v84.5L51.7,95.6
	c-2.4-2.3-6.2-2.3-8.5,0c-2.4,2.3-2.4,6.1,0,8.4l29.7,35.4c1.3,1.2,2.9,1.8,4.6,1.7c1.6,0.1,3.3-0.4,4.6-1.7l29.7-35.4
	c2.4-2.3,2.4-6.1,0-8.4C109.3,93.3,105.5,93.3,103.1,95.6L103.1,95.6z"/>
</svg>
