<?xml version="1.0" encoding="utf-8"?>
<!-- Generator: Adobe Illustrator 21.0.0, SVG Export Plug-In . SVG Version: 6.00 Build 0)  -->
<svg version="1.1" id="图层_1" xmlns="http://www.w3.org/2000/svg" xmlns:xlink="http://www.w3.org/1999/xlink" x="0px" y="0px"
	 viewBox="0 0 125 125" style="enable-background:new 0 0 125 125;" xml:space="preserve">
<style type="text/css">
	.st0{fill:#9CB3C3;}
</style>
<path class="st0" d="M6.4,125c1.5,0,2.9-0.6,4-1.6l62.2-55.5c1.5-1.4,2.4-3.4,2.4-5.6c0-2.1-0.8-4.1-2.4-5.5L10.7,1.6
	C8.3-0.7,4.5-0.5,2.2,2C2.1,2.2,1.9,2.4,1.7,2.7c-2.2,3.1-1.8,7.4,1,10l55.7,49.7l-56,50c-2.8,2.6-3.2,6.9-1,10
	C2.7,124.1,4.5,125,6.4,125z"/>
<path class="st0" d="M56.4,125c1.5,0,2.9-0.6,4-1.6l62.2-55.5c1.5-1.4,2.4-3.4,2.4-5.6c0-2.1-0.8-4.1-2.4-5.5L60.7,1.6
	c-2.4-2.2-6.2-2-8.5,0.4c-0.2,0.2-0.4,0.4-0.5,0.7c-2.2,3.1-1.8,7.4,1,10l55.7,49.7l-56,50c-2.8,2.6-3.2,6.9-1,10
	C52.7,124.1,54.5,125,56.4,125z"/>
</svg>
