<?xml version="1.0" encoding="utf-8"?>
<!-- Generator: Adobe Illustrator 21.0.0, SVG Export Plug-In . SVG Version: 6.00 Build 0)  -->
<svg version="1.1" id="图层_1" xmlns="http://www.w3.org/2000/svg" xmlns:xlink="http://www.w3.org/1999/xlink" x="0px" y="0px"
	 viewBox="0 0 194.8 200" style="enable-background:new 0 0 194.8 200;" xml:space="preserve">
<style type="text/css">
	.st0{fill:#9CB3C3;}
</style>
<path class="st0" d="M139.7,116.1l-64.9-39c-3.1-1.8-7.1-0.8-8.9,2.2c-0.6,1-0.9,2.1-0.9,3.3v77.9c0,2.3,1.3,4.5,3.3,5.6
	c1,0.6,2.1,0.8,3.2,0.8c1.2,0,2.3-0.3,3.3-0.9l64.9-39c1.9-1.2,3.1-3.3,3.1-5.5C142.8,119.4,141.6,117.3,139.7,116.1L139.7,116.1z
	 M77.9,149.2v-55l45.8,27.5L77.9,149.2z"/>
<path class="st0" d="M168.8,41.4h-30.3l34.2-30.8c2.4-2.4,2.4-6.4,0-8.9s-6.4-2.4-8.9,0l-43,39.5H73.8L30.9,1.9
	c-2.4-2.5-6.4-2.6-8.9-0.2s-2.6,6.4-0.2,8.9c0.1,0.1,0.1,0.1,0.2,0.2l34.2,30.8H26c-14.3,0-25.9,11.6-26,26V174
	c0,14.3,11.6,25.9,26,26h142.8c14.3,0,25.9-11.6,26-26V67.4C194.8,53.1,183.2,41.4,168.8,41.4C168.8,41.4,168.8,41.4,168.8,41.4z
	 M181.8,173.9c0,7.2-5.8,13-12.9,13c0,0,0,0-0.1,0H26c-7.2,0-13-5.8-13-12.9c0,0,0,0,0,0V67.4c0-7.2,5.8-13,12.9-13c0,0,0,0,0.1,0
	h142.8c7.2,0,13,5.8,13,12.9c0,0,0,0,0,0V173.9z"/>
</svg>
