<?xml version="1.0" encoding="utf-8"?>
<!-- Generator: Adobe Illustrator 21.0.0, SVG Export Plug-In . SVG Version: 6.00 Build 0)  -->
<svg version="1.1" id="图层_1" xmlns="http://www.w3.org/2000/svg" xmlns:xlink="http://www.w3.org/1999/xlink" x="0px" y="0px"
	 viewBox="0 0 196.5 173.7" style="enable-background:new 0 0 196.5 173.7;" xml:space="preserve">
<style type="text/css">
	.st0{fill:#9CB3C3;}
</style>
<path class="st0" d="M196.5,57.8c0-3.5-2.2-6.6-5.7-8.8L107.9,2.3c-5.7-3.1-13.7-3.1-19.4,0L5.7,48.6C2.2,50.8,0,53.9,0,57.4
	c0,3.5,2.2,6.6,5.7,8.8L30,79.8v64.3c1.3,19.4,35.7,29.5,67.8,29.5c32.6,0,67.4-10.6,67.8-30.4V79.8l24.2-13.7
	C194.3,64.4,196.5,61.3,196.5,57.8z M154.6,143.3C154.6,143.3,154.6,143.7,154.6,143.3c0,8.4-22,19.8-56.8,19.8
	s-55.9-11.5-56.4-19.4V86.5l47.1,26.4c2.6,1.8,6.2,2.2,9.7,2.2s7-0.9,9.7-2.2l47.1-26.4v56.8H154.6z M102.2,102.8
	c-2.2,1.3-6.2,1.3-8.4,0L13.2,57.4l81.1-44.9c2.2-1.3,6.2-1.3,8.4,0l80.6,45.4L102.2,102.8z"/>
<path class="st0" d="M189.4,77.6c-3.1,0-5.7,2.6-5.7,5.7v64.3c0,3.1,2.6,5.7,5.7,5.7c3.1,0,5.7-2.6,5.7-5.7V83.4
	C195.2,80.3,192.5,77.6,189.4,77.6z"/>
</svg>
