<?xml version="1.0" encoding="utf-8"?>
<!-- Generator: Adobe Illustrator 21.0.0, SVG Export Plug-In . SVG Version: 6.00 Build 0)  -->
<svg version="1.1" id="图层_1" xmlns="http://www.w3.org/2000/svg" xmlns:xlink="http://www.w3.org/1999/xlink" x="0px" y="0px"
	 viewBox="0 0 151.6 146.2" style="enable-background:new 0 0 151.6 146.2;" xml:space="preserve">
<style type="text/css">
	.st0{fill:#9FCEE2;}
</style>
<path class="st0" d="M83.9,90.4c3.1,0.3,5.3,3.1,5,6.2c-0.3,3.1-3.1,5.3-6.2,5c-3.3-0.3-6.5-0.5-9.8-0.5
	c-34.5,0-61.7,18.2-61.7,39.3c0,3.1-2.5,5.6-5.6,5.6c-3.1,0-5.6-2.5-5.6-5.6c0-28.5,33-50.5,73-50.5C76.7,89.8,80.3,90,83.9,90.4z
	 M73,78.6c-21.7,0-39.3-17.6-39.3-39.3S51.3,0,73,0s39.3,17.6,39.3,39.3S94.7,78.6,73,78.6z M73,67.4c15.5,0,28.1-12.6,28.1-28.1
	S88.5,11.2,73,11.2S44.9,23.8,44.9,39.3C44.9,54.8,57.5,67.4,73,67.4z M123.5,101.1c3.7,0,5.6,1.9,5.6,5.6v33.7
	c0,3.7-1.9,5.6-5.6,5.6c-3.7,0-5.6-1.9-5.6-5.6v-33.7C117.9,102.9,119.8,101.1,123.5,101.1z"/>
<path class="st0" d="M101,112.3c3.7,0,5.6,1.9,5.6,5.6v22.5c0,3.7-1.9,5.6-5.6,5.6c-3.7,0-5.6-1.9-5.6-5.6v-22.5
	C95.4,114.2,97.3,112.3,101,112.3z M146,89.8c3.7,0,5.6,1.9,5.6,5.6v44.9c0,3.7-1.9,5.6-5.6,5.6s-5.6-1.9-5.6-5.6V95.5
	C140.3,91.7,142.2,89.8,146,89.8z"/>
</svg>
