<?xml version="1.0" standalone="no"?><!DOCTYPE svg PUBLIC "-//W3C//DTD SVG 1.1//EN" "http://www.w3.org/Graphics/SVG/1.1/DTD/svg11.dtd"><svg class="icon" width="200px" height="200.00px" viewBox="0 0 1024 1024" version="1.1" xmlns="http://www.w3.org/2000/svg"><path d="M511.972699 524.475325A50.528104 50.528104 0 0 0 543.952512 511.6834a42.852949 42.852949 0 0 0 12.791925-34.538198V47.336519A42.852949 42.852949 0 0 0 545.231704 12.798321a49.248912 49.248912 0 0 0-33.898601-12.791925 44.132142 44.132142 0 0 0-31.340217 12.791925 47.330123 47.330123 0 0 0-14.071117 33.259005v430.44828a45.411334 45.411334 0 0 0 46.05093 47.969719z" fill="#dedfeb" /><path d="M978.238369 429.815079h-8.954348 8.954348a472.022036 472.022036 0 0 0-37.736179-106.172978 575.636629 575.636629 0 0 0-63.959626-94.660246 497.605886 497.605886 0 0 0-89.543475-77.391147l-6.395963-4.477173a40.93416 40.93416 0 0 0-27.502639-6.395963 44.132142 44.132142 0 0 0-30.70062 18.548291 46.690527 46.690527 0 0 0-7.675155 34.538198 42.852949 42.852949 0 0 0 18.548291 29.421428 383.757753 383.757753 0 0 1 123.442077 139.431983 393.351697 393.351697 0 0 1 43.492546 178.447356 373.524213 373.524213 0 0 1-31.340217 150.944716 387.59533 387.59533 0 0 1-206.58959 205.949994 383.757753 383.757753 0 0 1-507.19983-205.949994 372.884617 372.884617 0 0 1-30.061024-151.584313A383.757753 383.757753 0 0 1 281.718047 232.179836a43.492545 43.492545 0 0 0 19.187888-27.502638 42.852949 42.852949 0 0 0-7.675155-33.259006 48.609315 48.609315 0 0 0-30.70062-19.187887 46.05093 46.05093 0 0 0-34.538198 8.314751 525.748121 525.748121 0 0 0-83.147513 75.472358 447.717378 447.717378 0 0 0-63.959626 92.101861A527.66691 527.66691 0 0 0 45.067433 431.733868a478.417999 478.417999 0 0 0 24.304658 298.691451A467.544862 467.544862 0 0 0 172.986684 882.649228a496.96629 496.96629 0 0 0 152.863505 103.614593 479.697191 479.697191 0 0 0 628.083522-255.838502 447.717378 447.717378 0 0 0 38.375775-186.762106 456.671726 456.671726 0 0 0-14.071117-113.848134z" fill="#dedfeb" /></svg>