<?xml version="1.0" encoding="utf-8"?>
<!-- Generator: Adobe Illustrator 21.0.0, SVG Export Plug-In . SVG Version: 6.00 Build 0)  -->
<svg version="1.1" id="图层_1" xmlns="http://www.w3.org/2000/svg" xmlns:xlink="http://www.w3.org/1999/xlink" x="0px" y="0px"
	 viewBox="0 0 125 125" style="enable-background:new 0 0 125 125;" xml:space="preserve">
<style type="text/css">
	.st0{fill:#9CB3C3;}
</style>
<path class="st0" d="M123.6,122.3c2.2-3.1,1.8-7.4-1-10l-56-50l55.7-49.7c2.8-2.6,3.2-6.9,1-10c-0.2-0.2-0.3-0.5-0.5-0.7
	c-2.2-2.4-6-2.6-8.5-0.4L52.4,56.8c-1.5,1.4-2.4,3.4-2.4,5.5c0,2.1,0.8,4.1,2.4,5.6l62.2,55.5c1.1,1,2.5,1.6,4,1.6
	C120.5,125,122.3,124.1,123.6,122.3z"/>
<path class="st0" d="M73.6,122.3c2.2-3.1,1.8-7.4-1-10l-56-50l55.7-49.7c2.8-2.6,3.2-6.9,1-10C73.1,2.4,73,2.2,72.8,2
	c-2.2-2.4-6-2.6-8.5-0.4L2.4,56.8C0.8,58.2,0,60.2,0,62.3c0,2.1,0.8,4.1,2.4,5.6l62.2,55.5c1.1,1,2.5,1.6,4,1.6
	C70.5,125,72.3,124.1,73.6,122.3z"/>
</svg>
